<svg xmlns="http://www.w3.org/2000/svg" viewBox="0 0 120 120" role="img" aria-label="Smart Ground">
  <rect width="120" height="120" rx="24" fill="#1a1a2e"/>
  <g stroke="#ffffff" stroke-width="6" stroke-linecap="round">
    <line x1="45" y1="20" x2="45" y2="34"/><line x1="60" y1="20" x2="60" y2="34"/><line x1="75" y1="20" x2="75" y2="34"/>
    <line x1="45" y1="86" x2="45" y2="100"/><line x1="60" y1="86" x2="60" y2="100"/><line x1="75" y1="86" x2="75" y2="100"/>
    <line x1="20" y1="45" x2="34" y2="45"/><line x1="20" y1="60" x2="34" y2="60"/><line x1="20" y1="75" x2="34" y2="75"/>
    <line x1="86" y1="45" x2="100" y2="45"/><line x1="86" y1="60" x2="100" y2="60"/><line x1="86" y1="75" x2="100" y2="75"/>
  </g>
  <rect x="34" y="34" width="52" height="52" rx="8" fill="none" stroke="#ffffff" stroke-width="7"/>
  <rect x="48" y="48" width="24" height="24" rx="4" fill="#ffffff"/>
</svg>
